# xmcd
#
# Track frame offsets:
#	150
#	13925
#	24425
#	38057
#	56520
#	74277
#	89350
#	100452
#	117680
#	132240
#	144422
#
# Disc length: 2108 seconds
#
# Revision: 1
# Processed by: cddbd v1.5.2PL0 Copyright (c) Steve Scherf et al.
# Submitted via: audiograbber 1.83.01
#
DISCID=9a083a0b
DTITLE=Eddie G. - Nothin' (2) Lose
DYEAR=1999
DGENRE=Country
TTITLE0=Try try again
TTITLE1=It's only that I love you so
TTITLE2=Aint' been blue
TTITLE3=Let time pass
TTITLE4=Trucker and the UFO
TTITLE5=Rockin' the country
TTITLE6=Ninety to nothin'
TTITLE7=Note on my pillow
TTITLE8=I don't remember
TTITLE9=Come to the rock
TTITLE10=Dear Mamma
EXTD=
EXTT0=
EXTT1=
EXTT2=
EXTT3=
EXTT4=
EXTT5=
EXTT6=
EXTT7=
EXTT8=
EXTT9=
EXTT10=
PLAYORDER=
